<?xml version="1.0" standalone="no"?>
<!DOCTYPE svg PUBLIC "-//W3C//DTD SVG 20010904//EN"
 "http://www.w3.org/TR/2001/REC-SVG-20010904/DTD/svg10.dtd">
<svg version="1.0" xmlns="http://www.w3.org/2000/svg"
 width="2087.000000pt" height="1040.000000pt" viewBox="0 0 2087.000000 1040.000000"
 preserveAspectRatio="xMidYMid meet">

<g transform="translate(0.000000,1040.000000) scale(0.100000,-0.100000)"
fill="#000000" stroke="none">
<path fill="white" d="M11570 8665 c0 -14 -5 -25 -11 -25 -6 0 -8 7 -5 16 11 29 -74 -28
-127 -86 -28 -30 -113 -134 -190 -230 -105 -130 -146 -175 -161 -174 -12 1
-75 15 -141 32 -186 48 -261 56 -490 56 -233 0 -298 -7 -519 -61 l-149 -37
-34 40 c-19 21 -55 66 -80 99 -119 154 -276 327 -311 343 -21 9 -46 23 -56 32
-15 12 -20 12 -23 2 -3 -7 -16 -25 -29 -41 -45 -54 -100 -212 -133 -383 -25
-125 -45 -339 -37 -379 6 -33 6 -34 -99 -107 -333 -233 -640 -643 -814 -1086
-118 -300 -175 -565 -190 -886 -22 -445 52 -817 234 -1180 250 -500 693 -921
1223 -1164 211 -96 522 -185 727 -208 191 -21 164 -7 220 -108 27 -50 52 -90
55 -90 3 0 24 35 48 78 23 42 46 83 50 89 5 7 51 17 107 23 438 48 803 187
1185 453 255 178 517 456 683 724 222 360 342 726 378 1153 35 424 -48 867
-238 1276 -132 284 -264 468 -502 704 -94 93 -206 193 -257 229 l-91 65 -7
121 c-13 257 -88 572 -156 658 -11 14 -24 36 -30 51 -12 33 -30 34 -30 1z
m-2167 -333 c42 -28 89 -87 182 -226 33 -49 73 -98 89 -110 83 -62 110 -100
238 -339 26 -48 50 -92 53 -97 9 -15 35 1 35 21 0 10 4 19 9 19 4 0 11 -27 15
-61 9 -93 21 -103 40 -37 9 31 16 58 16 61 0 3 5 18 11 34 8 22 12 25 20 13 7
-10 8 4 3 45 -5 45 -14 69 -35 94 -16 19 -27 37 -24 39 7 7 79 -20 107 -41 20
-15 35 -18 61 -13 25 5 38 2 47 -9 7 -8 17 -15 22 -15 14 0 -12 41 -44 68 -38
32 -31 37 23 14 33 -15 57 -37 97 -91 29 -39 56 -71 60 -71 4 0 33 31 65 70
38 47 73 78 107 95 27 14 50 23 50 21 0 -2 -16 -23 -35 -46 -38 -46 -45 -66
-17 -55 9 4 35 11 57 15 22 4 54 14 70 23 17 8 46 18 65 22 l35 8 -31 -26
c-23 -20 -33 -37 -37 -69 -2 -24 -8 -52 -12 -63 -6 -19 -6 -19 8 -2 13 16 17
9 37 -73 12 -50 26 -92 30 -95 5 -3 13 28 20 67 13 83 18 102 19 72 1 -21 19
-44 34 -44 4 0 24 33 42 74 19 40 61 119 95 175 33 57 60 106 60 111 0 5 28
33 61 62 34 29 99 105 145 169 107 150 207 241 247 226 44 -17 123 -193 162
-362 55 -234 62 -507 19 -715 -5 -22 -4 -23 8 -8 7 9 21 31 31 49 10 17 19 30
22 28 5 -6 -33 -284 -45 -328 -5 -20 -10 -48 -10 -63 0 -15 -4 -29 -8 -32 -4
-2 -6 12 -4 32 5 53 -13 23 -34 -58 -10 -36 -19 -67 -20 -69 -2 -2 -25 20 -51
50 -25 30 -81 87 -122 126 -68 65 -73 73 -51 74 23 0 23 1 -7 12 -17 7 -35 15
-39 20 -11 11 15 8 38 -4 17 -9 20 -9 15 4 -3 8 3 44 14 79 10 34 19 65 19 68
-1 3 -23 -20 -49 -50 -28 -31 -53 -51 -58 -46 -4 5 -2 11 5 13 9 4 10 9 3 17
-13 16 29 158 56 188 18 21 18 21 -2 14 -11 -4 -50 -28 -87 -53 -38 -26 -71
-44 -74 -40 -4 3 -1 26 5 51 14 55 14 89 1 81 -18 -11 -10 48 14 108 13 31 21
57 18 57 -3 0 -23 -17 -44 -37 -49 -48 -60 -36 -15 18 23 26 56 91 91 178 186
460 195 474 257 415 16 -15 29 -24 29 -19 0 14 -74 124 -87 129 -20 8 -37 -27
-117 -234 -82 -214 -97 -251 -162 -389 -24 -51 -47 -104 -50 -117 -4 -13 -10
-27 -15 -30 -5 -3 -9 -10 -9 -16 0 -6 6 -6 15 2 29 24 28 0 -3 -60 -28 -52
-30 -63 -19 -81 10 -18 8 -23 -17 -45 -28 -24 -28 -25 -7 -31 38 -10 22 -23
-21 -18 l-43 5 30 -14 c17 -9 38 -15 48 -16 18 0 97 -37 97 -45 0 -2 -18 2
-40 10 -22 8 -40 12 -40 10 0 -2 44 -38 98 -78 138 -105 195 -159 241 -229 23
-33 41 -64 41 -69 0 -5 -18 1 -40 12 -23 12 -43 19 -46 17 -2 -3 11 -25 29
-49 19 -24 57 -80 87 -124 29 -44 68 -99 87 -122 48 -61 29 -53 -39 14 -70 70
-75 55 -10 -30 26 -34 60 -80 75 -102 14 -22 65 -86 112 -143 46 -57 99 -124
117 -150 17 -26 47 -65 65 -86 18 -22 33 -43 33 -48 0 -4 -21 1 -47 11 -27 10
-86 29 -133 41 -47 13 -98 30 -114 38 -28 14 -27 12 13 -34 24 -27 50 -62 58
-79 9 -16 49 -87 89 -156 41 -69 74 -129 74 -133 0 -5 -11 -1 -23 7 -13 9 -91
36 -173 60 -87 27 -139 39 -124 29 34 -23 66 -60 97 -112 l26 -44 -31 23 c-17
12 -34 26 -37 31 -4 6 -10 10 -14 10 -5 0 2 -26 15 -57 21 -54 64 -239 64
-278 0 -13 -5 -16 -22 -11 -28 8 -277 66 -285 66 -2 0 6 -13 20 -30 29 -34 73
-158 61 -170 -5 -4 -54 -27 -109 -50 -55 -23 -167 -75 -250 -115 -82 -41 -151
-72 -153 -70 -2 1 6 23 18 47 20 41 20 42 1 18 -11 -14 -44 -68 -72 -120 -29
-52 -61 -108 -72 -125 -25 -39 -98 -99 -178 -147 -55 -33 -71 -38 -124 -38
-34 0 -75 4 -91 9 -16 5 -41 12 -56 15 -40 9 -35 34 10 52 59 24 82 37 82 46
0 5 12 22 28 37 34 34 68 162 51 193 -6 11 -36 32 -67 46 -48 22 -71 27 -143
26 -73 0 -94 -4 -142 -28 -69 -33 -83 -55 -64 -93 8 -16 17 -45 21 -66 4 -20
20 -52 35 -70 15 -17 30 -39 33 -48 4 -9 32 -26 63 -39 89 -36 71 -57 -70 -80
-159 -26 -307 79 -417 295 -63 123 -100 179 -73 111 8 -22 14 -40 13 -42 -2
-1 -68 30 -148 70 -80 40 -198 95 -262 122 -65 27 -118 52 -118 56 0 4 17 48
38 96 l38 89 -70 -18 c-103 -27 -227 -51 -232 -46 -9 9 35 183 65 262 17 44
31 81 31 83 0 3 -18 -12 -41 -33 -22 -20 -43 -34 -46 -32 -10 11 49 108 83
133 20 16 32 30 27 31 -4 2 -76 -19 -158 -46 -83 -26 -152 -47 -154 -45 -2 2
16 36 41 76 24 40 64 107 88 147 24 41 62 95 84 119 30 32 35 43 21 39 -11 -3
-65 -17 -120 -31 -55 -14 -119 -32 -142 -40 -24 -8 -43 -12 -43 -9 0 4 13 21
29 38 24 26 160 198 371 474 74 96 75 107 2 39 -64 -61 -107 -81 -56 -25 17
17 55 67 85 110 30 43 73 104 96 135 23 31 43 60 43 64 0 4 -21 -2 -46 -12
-25 -11 -48 -20 -50 -20 -10 0 78 117 124 164 26 27 92 85 147 130 54 45 106
87 115 94 8 7 -4 4 -27 -8 -47 -22 -57 -25 -48 -10 3 5 34 23 69 40 72 34 111
68 57 49 -35 -12 -52 -6 -33 13 8 8 8 17 0 32 -8 15 -8 21 1 24 18 6 13 25
-25 98 -66 128 -121 180 -82 79 15 -41 18 -59 10 -67 -8 -8 -8 -17 -1 -30 6
-12 6 -18 0 -18 -6 0 -8 -20 -4 -50 3 -27 2 -50 -3 -50 -5 0 -42 18 -82 40
-79 43 -90 47 -74 27 6 -7 25 -52 42 -100 26 -71 30 -90 20 -102 -19 -23 -25
-19 -65 40 -21 30 -40 54 -42 52 -1 -2 3 -23 11 -48 29 -95 34 -128 19 -133
-17 -7 -17 -24 1 -28 9 -2 -35 -52 -110 -127 l-124 -125 0 55 c-1 30 -7 68
-15 84 l-13 30 -1 -39 c-1 -22 -3 -37 -5 -35 -6 5 -32 169 -45 286 -6 45 -13
94 -16 110 -6 27 -5 27 30 -12 l37 -40 -6 30 c-3 17 -11 99 -17 183 -20 239 5
471 72 682 35 109 48 135 85 180 31 37 55 35 117 -8z m1240 -287 c71 -8 165
-24 208 -35 44 -12 85 -18 91 -14 6 4 0 -7 -13 -25 -12 -17 -29 -31 -37 -31
-8 0 -62 10 -121 22 -93 20 -135 23 -336 22 -180 0 -248 -4 -310 -18 -133 -29
-154 -30 -176 -10 -19 17 -19 18 13 31 151 65 427 88 681 58z m-1689 -688
c-59 -62 -134 -145 -167 -185 -444 -543 -637 -1361 -472 -1998 31 -116 31
-126 2 -160 l-24 -28 -21 70 c-63 206 -86 377 -85 629 1 213 12 313 59 523 55
247 172 539 299 749 101 165 264 362 402 485 l98 87 8 -30 c7 -28 1 -37 -99
-142z m3122 -62 c236 -263 398 -553 492 -882 132 -461 134 -911 6 -1315 -37
-116 -37 -116 -60 -102 -34 23 -35 37 -9 115 60 176 103 520 90 724 -26 406
-132 756 -329 1084 -89 146 -178 259 -330 418 -69 72 -126 133 -126 136 0 3 5
18 10 32 l10 27 92 -83 c50 -46 119 -115 154 -154z m-2601 -165 c-3 -5 -14
-10 -23 -10 -15 0 -15 2 -2 10 20 13 33 13 25 0z m2474 -223 c176 -261 284
-529 335 -832 20 -118 31 -279 20 -274 -18 8 -167 169 -162 174 3 4 31 -3 62
-13 31 -10 56 -16 56 -13 -1 3 -17 19 -38 34 -44 33 -184 201 -253 304 -27 39
-53 74 -59 78 -5 3 -10 11 -10 16 0 5 19 0 43 -12 29 -16 65 -23 117 -25 l75
-4 -41 14 c-68 23 -80 32 -174 138 -63 71 -90 109 -90 127 0 14 -7 53 -15 86
-29 115 -36 232 -18 313 l16 72 29 -32 c15 -18 64 -86 107 -151z m-2871 24 c4
-87 1 -122 -17 -191 -11 -47 -22 -100 -24 -118 -3 -23 -25 -57 -78 -119 -81
-94 -134 -138 -180 -148 -37 -8 -39 -28 -1 -21 15 3 47 8 72 12 25 3 57 13 73
20 15 8 27 11 27 6 0 -27 -253 -348 -311 -394 -21 -17 -37 -33 -34 -36 2 -3
10 0 17 5 12 10 108 34 108 28 0 -2 -43 -47 -95 -100 l-95 -97 0 44 c0 126 80
474 150 656 67 174 195 396 301 521 75 89 79 86 87 -68z m-184 -978 c-15 -61
-86 -241 -114 -285 -16 -27 -25 -48 -20 -48 5 0 60 14 121 30 62 17 114 28
117 25 3 -3 -9 -71 -26 -153 -17 -81 -36 -178 -42 -216 -6 -38 -13 -73 -16
-78 -3 -4 -1 -8 4 -8 18 0 247 91 280 112 18 11 35 18 38 15 3 -3 -4 -35 -15
-72 -29 -94 -28 -98 27 -117 84 -31 107 -51 154 -140 25 -45 70 -128 100 -183
30 -55 110 -201 178 -325 225 -414 251 -461 478 -865 85 -152 89 -160 66 -163
-37 -5 -238 34 -372 73 -305 87 -618 259 -797 439 -64 64 -75 81 -113 177 -47
119 -82 254 -82 317 0 74 -18 45 -25 -42 -6 -73 1 -187 21 -321 5 -37 2 -33
-42 45 -115 207 -148 351 -149 642 l0 188 -40 -119 c-22 -66 -43 -123 -47
-127 -5 -4 -8 48 -8 115 0 122 19 228 57 318 23 55 8 50 -35 -14 -59 -85 -98
-118 -182 -152 -41 -17 -76 -31 -77 -31 -2 0 -3 -5 -3 -11 0 -5 10 -9 22 -7
18 3 24 -6 41 -57 32 -94 157 -331 236 -446 46 -67 77 -123 86 -157 l14 -54
-57 63 c-141 155 -239 313 -322 522 l-52 128 54 57 c71 77 105 144 177 354 64
190 79 224 118 276 13 17 22 32 19 32 -3 0 -35 -12 -71 -27 -36 -14 -68 -24
-71 -20 -4 3 33 49 80 101 60 65 120 117 189 164 56 38 103 70 105 71 1 0 -1
-11 -4 -26z m3081 17 c10 -17 153 -110 168 -110 7 0 55 -48 107 -106 101 -116
101 -117 -11 -80 l-36 13 27 -41 c17 -24 47 -106 75 -201 63 -214 100 -315
136 -376 16 -28 29 -55 27 -59 -2 -5 -32 6 -68 23 -60 30 -70 39 -127 126 -35
52 -63 92 -63 90 0 -3 9 -30 19 -60 11 -31 25 -93 31 -140 10 -85 4 -279 -10
-279 -4 0 -11 24 -15 53 -4 28 -15 77 -24 107 l-18 55 5 -100 c7 -158 -37
-424 -92 -561 -13 -32 -45 -95 -70 -139 -25 -44 -46 -86 -46 -92 0 -7 -4 -13
-9 -13 -9 0 6 76 30 160 16 56 24 244 11 266 -10 16 -11 14 -12 -20 0 -56 -25
-145 -81 -287 -58 -147 -75 -172 -166 -245 -247 -200 -549 -351 -843 -423
-126 -31 -296 -58 -306 -49 -3 3 33 73 79 155 47 81 120 213 164 293 74 135
271 484 403 715 31 55 100 180 154 277 53 97 102 181 109 186 7 6 41 22 77 37
36 15 68 30 72 33 6 6 -24 110 -47 165 -6 16 3 13 56 -14 35 -18 102 -47 149
-66 47 -19 91 -37 98 -40 21 -9 14 46 -51 375 -8 40 -12 74 -8 76 3 2 58 -12
121 -30 63 -18 117 -34 119 -34 2 0 -3 8 -11 18 -9 9 -27 40 -41 67 -35 71
-108 285 -97 285 5 0 12 -5 15 -10z m125 -45 c7 -8 8 -15 2 -15 -5 0 -15 7
-22 15 -7 8 -8 15 -2 15 5 0 15 -7 22 -15z m-783 -996 c-41 -74 -123 -219
-182 -324 -59 -104 -156 -275 -215 -380 -58 -104 -145 -257 -192 -340 -46 -82
-131 -235 -188 -340 -56 -104 -106 -194 -110 -199 -5 -4 -16 7 -25 25 -19 38
-149 273 -263 479 -123 221 -352 636 -427 775 -21 39 -61 113 -90 165 -112
205 -145 270 -135 270 20 0 266 -113 315 -145 46 -30 112 -94 160 -156 11 -14
42 -42 69 -63 44 -33 56 -53 116 -179 127 -269 270 -557 278 -557 9 0 270 512
320 628 23 53 42 79 70 99 20 15 73 66 117 114 44 48 103 102 132 119 49 30
315 151 321 146 1 -2 -31 -63 -71 -137z m-882 51 c-3 -5 -27 -10 -53 -10 -34
0 -43 3 -32 10 20 13 93 13 85 0z m2073 -6 c27 -8 26 -9 -30 -144 -51 -122
-144 -288 -211 -377 -60 -81 -147 -179 -147 -167 0 28 26 94 54 138 95 147
228 397 266 496 23 60 28 64 68 54z m-2166 -370 c88 -18 110 -18 203 6 43 11
90 20 104 20 l26 -1 -35 -30 c-74 -64 -129 -89 -202 -89 -37 0 -79 5 -94 10
-32 13 -154 92 -154 102 0 8 67 0 152 -18z m-1348 -614 l6 -35 -14 35 c-8 19
-15 42 -15 50 -1 26 16 -10 23 -50z m2866 -7 c-11 -17 -11 -17 -6 0 3 10 6 24
7 30 0 9 2 9 5 0 3 -7 0 -20 -6 -30z"/>
<path fill="white" d="M9307 8288 c-24 -19 -93 -173 -108 -243 -15 -68 -17 -320 -3 -378 6
-27 9 22 9 165 0 168 3 213 18 262 30 96 58 127 98 106 25 -14 46 -56 125
-253 110 -274 191 -427 225 -427 5 0 -29 75 -75 168 -46 92 -111 239 -144 327
-83 219 -108 279 -119 282 -5 2 -16 -2 -26 -9z"/>
<path fill="white" d="M11634 8128 c23 -77 29 -121 30 -243 0 -77 -2 -194 -6 -260 -4 -68
-4 -111 1 -100 15 36 33 306 26 390 -7 84 -30 189 -47 215 -8 13 -9 12 -4 -2z"/>
<path fill="white" d="M11646 7463 c-3 -10 -10 -45 -15 -78 -5 -33 -13 -73 -17 -89 -5 -20
-4 -27 4 -22 14 9 28 63 37 144 7 59 2 81 -9 45z"/>
<path fill="white" d="M9211 7465 c-2 -25 30 -180 39 -189 7 -7 10 -5 10 5 -1 18 -48 197
-49 184z"/>
<path fill="white" d="M10385 7314 c-19 -42 -35 -79 -35 -81 0 -2 -76 -156 -168 -341 l-169
-337 42 -115 c68 -186 288 -586 355 -645 l22 -20 32 37 c74 85 311 540 356
683 l22 70 -201 401 c-110 220 -201 406 -201 412 0 32 -23 5 -55 -64z m99
-235 c30 -85 80 -224 111 -309 32 -85 58 -164 58 -175 0 -11 -25 -76 -56 -145
-30 -69 -76 -183 -103 -255 -26 -71 -51 -134 -56 -140 -4 -5 -9 207 -10 470
l-2 480 -6 -452 c-3 -248 -8 -454 -11 -458 -10 -9 -50 80 -129 287 -38 97 -74
186 -80 198 -8 14 -8 25 -1 33 12 15 124 325 183 504 24 73 44 129 46 124 1
-4 27 -77 56 -162z"/>
<path fill="white" d="M9268 7205 c15 -42 38 -66 26 -27 -16 48 -27 72 -35 72 -4 0 -1 -20
9 -45z"/>
<path fill="white" d="M11586 7209 c-18 -44 -16 -59 3 -35 16 19 32 76 21 76 -4 0 -15 -19
-24 -41z"/>
<path fill="white" d="M10736 6174 c-27 -35 -54 -84 -61 -108 -8 -24 -21 -58 -29 -74 -18
-34 -21 -79 -7 -101 6 -10 9 1 9 32 -1 38 8 62 49 134 63 110 96 174 91 179
-3 2 -26 -26 -52 -62z"/>
<path fill="white" d="M10092 6176 c13 -28 42 -84 66 -125 30 -54 42 -87 42 -115 0 -30 3
-37 12 -28 8 8 6 30 -12 89 -25 85 -53 139 -100 193 l-30 35 22 -49z"/>
<path fill="white" d="M9791 6119 c89 -97 221 -219 261 -239 19 -11 18 -7 -8 21 -18 19 -42
54 -54 79 -57 116 -108 162 -231 210 l-52 21 84 -92z"/>
<path fill="white" d="M11052 6165 c-104 -49 -145 -85 -199 -177 -28 -47 -62 -90 -83 -104
-19 -13 -30 -24 -25 -24 6 1 28 14 50 30 22 16 69 49 105 73 37 25 90 74 123
114 31 39 72 82 90 96 44 35 26 33 -61 -8z"/>
<path fill="white" d="M9440 6045 c0 -2 18 -14 41 -25 39 -21 196 -171 227 -218 13 -20 13
-25 1 -33 -11 -7 -11 -9 0 -9 20 0 111 -61 111 -75 0 -6 -6 -17 -12 -25 -11
-12 -10 -12 2 -3 8 6 31 16 50 21 34 10 34 10 6 11 -56 2 -122 97 -133 191 -6
48 -5 50 18 50 13 0 37 -9 54 -20 22 -14 32 -16 42 -8 23 18 34 -3 23 -42 -19
-68 11 -93 40 -32 8 17 18 32 22 32 11 0 78 -86 78 -100 0 -6 -14 -25 -31 -41
l-31 -29 26 0 c38 0 78 -23 115 -66 18 -20 34 -34 37 -32 2 3 -4 29 -15 59
-41 117 -67 164 -124 216 -50 45 -70 56 -159 83 -86 27 -366 100 -383 100 -3
0 -5 -2 -5 -5z"/>
<path fill="white" d="M11295 6024 c-363 -90 -460 -144 -517 -290 -15 -38 -30 -85 -34 -104
l-7 -35 39 37 c25 23 56 41 86 48 l47 12 -29 25 c-39 33 -38 62 5 103 36 35
41 35 59 -2 19 -38 40 -28 47 20 3 23 10 46 15 51 16 14 113 45 120 38 4 -4
-1 -37 -11 -74 -15 -56 -27 -77 -65 -116 -26 -26 -44 -50 -39 -53 10 -6 119
76 119 89 0 20 147 178 205 221 54 39 77 60 63 55 -2 0 -48 -12 -103 -25z
m-315 -148 c0 -8 -4 -17 -9 -21 -12 -7 -24 12 -16 25 9 15 25 12 25 -4z"/>
<path fill="white" d="M10176 5845 c-9 -26 -7 -32 5 -12 6 10 9 21 6 23 -2 3 -7 -2 -11 -11z"/>
<path fill="white" d="M10698 5832 c-15 -6 -14 -10 8 -36 22 -25 28 -27 47 -17 l22 11 -22
-5 c-15 -4 -25 0 -33 15 -6 11 -8 25 -5 30 7 11 7 11 -17 2z"/>
<path fill="white" d="M10185 5521 c-14 -44 -25 -93 -23 -108 2 -20 12 2 32 75 16 56 26
105 23 108 -3 3 -17 -31 -32 -75z"/>
<path fill="white" d="M10650 5591 c0 -29 44 -195 48 -178 2 10 -4 51 -13 90 -18 74 -34
115 -35 88z"/>
<path fill="white" d="M8961 5109 c-2 -61 55 -262 99 -352 72 -147 233 -358 340 -445 45
-36 44 -36 -12 25 -192 211 -352 505 -416 768 l-10 40 -1 -36z"/>
<path fill="white" d="M11877 5042 c-37 -125 -108 -281 -187 -412 -81 -135 -136 -206 -232
-303 -43 -43 -64 -68 -46 -56 58 40 211 202 270 284 81 114 132 215 171 335
33 101 64 237 56 245 -3 2 -17 -40 -32 -93z"/>
</g>
</svg>
