<?xml version="1.0" standalone="no"?>
<!DOCTYPE svg PUBLIC "-//W3C//DTD SVG 20010904//EN"
 "http://www.w3.org/TR/2001/REC-SVG-20010904/DTD/svg10.dtd">
<svg version="1.0" xmlns="http://www.w3.org/2000/svg"
 width="772.000000pt" height="772.000000pt" viewBox="0 0 772.000000 772.000000"
 preserveAspectRatio="xMidYMid meet">

<g transform="translate(0.000000,772.000000) scale(0.100000,-0.100000)"
fill="#000000" stroke="none">
<path fill="white" d="M5397 7683 c-4 -3 -7 -17 -7 -30 0 -12 -4 -23 -10 -23 -5 0 -10 7
-10 15 0 23 -14 18 -77 -29 -67 -51 -115 -104 -315 -351 -195 -240 -219 -265
-252 -265 -15 0 -80 13 -144 29 -274 69 -306 73 -612 78 -381 7 -504 -7 -852
-95 l-117 -30 -39 47 c-21 25 -85 103 -140 173 -176 221 -367 428 -395 428 -7
0 -30 12 -50 26 -21 14 -40 24 -41 22 -2 -1 -24 -33 -48 -69 -100 -146 -184
-471 -219 -838 -6 -68 -9 -139 -6 -159 4 -19 2 -43 -3 -53 -6 -10 -58 -52
-117 -95 -488 -350 -891 -901 -1126 -1539 -149 -405 -212 -741 -224 -1195 -14
-558 76 -990 306 -1455 300 -606 761 -1088 1384 -1445 257 -147 561 -264 908
-349 137 -33 202 -44 387 -66 69 -8 134 -20 146 -29 13 -8 49 -60 80 -115 31
-55 60 -102 65 -105 7 -5 34 36 101 157 18 32 42 62 55 67 12 5 105 20 206 35
398 56 699 148 1029 314 349 175 626 375 900 651 321 322 550 662 728 1080
241 567 319 1234 217 1846 -94 562 -336 1120 -662 1529 -157 197 -461 493
-649 632 l-102 76 -6 96 c-29 413 -111 793 -202 926 -13 20 -33 54 -44 76 -20
38 -30 46 -43 32z m-2916 -451 c61 -39 118 -105 234 -272 70 -99 123 -163 177
-212 91 -82 131 -140 265 -383 58 -106 105 -180 113 -180 8 0 19 10 25 23 19
42 26 27 41 -83 14 -104 27 -95 64 44 17 60 28 85 41 88 13 4 17 12 14 32 -2
14 -7 43 -10 63 -3 20 -21 60 -40 87 -44 63 -31 66 74 16 52 -25 86 -35 121
-35 30 0 52 -5 60 -15 7 -8 16 -15 21 -15 19 0 7 23 -38 72 l-48 51 34 -7 c49
-9 91 -45 168 -142 38 -46 70 -84 73 -84 3 0 35 34 70 76 36 42 81 89 100 104
39 30 120 74 120 64 0 -3 -18 -29 -40 -56 -41 -52 -52 -85 -25 -74 9 3 44 13
78 21 34 9 90 27 124 41 87 34 101 32 58 -11 -34 -35 -38 -44 -50 -118 -3 -21
-9 -46 -12 -55 -6 -15 -4 -15 9 -4 20 16 20 17 53 -103 16 -55 32 -104 36
-109 9 -10 25 46 35 122 6 50 24 83 24 45 0 -22 18 -43 36 -43 7 0 44 60 82
133 169 321 172 325 282 441 58 61 144 163 192 226 134 179 242 280 299 280
34 0 61 -33 112 -136 74 -149 142 -401 167 -624 14 -120 14 -432 1 -530 -5
-41 -13 -95 -16 -120 l-6 -45 38 59 c20 32 39 53 41 47 6 -18 -56 -452 -75
-531 -6 -22 -7 -20 -13 15 l-5 40 -17 -45 c-9 -25 -24 -72 -33 -104 l-17 -60
-151 159 c-84 87 -153 162 -155 166 -2 5 5 9 15 10 10 0 -2 10 -27 21 -30 14
-40 22 -28 25 9 2 26 -1 37 -7 19 -10 21 -8 21 17 0 16 9 60 20 98 11 38 20
72 20 74 0 2 -29 -24 -65 -59 -36 -34 -68 -60 -71 -57 -3 3 -2 12 2 19 4 7 7
26 5 43 -3 39 43 185 69 218 41 52 25 46 -113 -41 -48 -30 -90 -52 -94 -49 -3
4 0 41 7 82 12 69 11 77 -4 88 -15 11 -16 19 -7 59 6 26 20 70 31 99 12 28 18
54 15 57 -3 3 -25 -14 -49 -37 -55 -54 -80 -51 -36 4 45 56 97 162 178 365
140 350 197 462 239 468 11 2 35 -9 52 -24 18 -14 34 -24 37 -22 7 7 -98 161
-113 166 -20 6 -48 -51 -119 -233 -135 -344 -274 -675 -329 -778 -19 -35 -20
-56 -3 -39 7 7 16 12 20 12 15 0 8 -30 -23 -95 -24 -51 -29 -72 -23 -100 5
-31 2 -41 -21 -65 l-27 -28 23 -14 c23 -12 22 -13 -26 -18 l-50 -5 45 -17 c25
-9 63 -21 85 -27 22 -6 51 -20 65 -31 l25 -20 -48 16 c-26 9 -50 14 -52 12 -3
-2 57 -51 132 -109 75 -57 167 -135 206 -173 68 -67 165 -202 153 -213 -3 -3
-27 4 -53 15 -26 11 -50 19 -52 16 -3 -2 6 -19 19 -37 14 -17 71 -99 128 -181
57 -82 115 -164 129 -183 14 -18 24 -35 22 -37 -2 -2 -35 25 -73 60 -74 68
-99 81 -71 37 36 -57 182 -252 264 -352 136 -167 321 -416 311 -419 -8 -3
-119 30 -319 94 -41 13 -76 22 -78 20 -2 -2 17 -27 42 -57 41 -48 160 -244
254 -418 28 -53 31 -63 15 -56 -45 20 -332 114 -369 121 l-40 7 55 -60 c30
-33 66 -79 79 -103 l24 -44 -34 24 c-19 13 -42 33 -51 44 -15 18 -18 19 -18 4
0 -10 11 -50 24 -90 30 -91 76 -294 76 -338 0 -29 -3 -32 -22 -26 -90 25 -371
86 -376 82 -3 -3 2 -14 11 -24 27 -29 76 -145 83 -192 l6 -45 -163 -73 c-90
-40 -243 -110 -339 -156 -96 -46 -177 -82 -178 -81 -2 2 6 25 17 52 20 47 20
48 1 24 -11 -13 -57 -89 -102 -170 -46 -80 -98 -164 -118 -185 -44 -49 -157
-134 -234 -175 -54 -28 -66 -31 -150 -30 -116 1 -211 25 -211 54 0 15 17 28
66 52 104 50 165 138 190 276 l13 67 -28 29 c-16 16 -51 40 -80 53 -45 20 -66
23 -182 23 -130 0 -131 0 -200 -35 -90 -46 -94 -59 -60 -171 37 -122 100 -204
190 -249 36 -18 66 -39 66 -47 0 -32 -181 -70 -276 -58 -116 14 -257 111 -349
239 -24 34 -73 117 -110 186 -76 142 -106 183 -80 111 8 -24 14 -46 12 -47 -2
-2 -77 33 -168 77 -155 77 -276 133 -434 202 -108 47 -105 39 -52 169 26 62
47 116 47 120 0 4 -31 -2 -69 -12 -117 -33 -315 -70 -324 -61 -15 15 63 303
119 436 6 14 -8 7 -45 -23 -30 -23 -58 -42 -62 -42 -18 0 44 105 92 155 27 29
49 55 49 58 0 7 -71 -13 -258 -72 -73 -24 -137 -41 -143 -39 -14 5 178 324
252 421 33 42 55 77 49 77 -17 0 -159 -36 -283 -72 -59 -17 -110 -28 -113 -26
-3 3 59 86 138 185 174 217 411 526 441 573 20 33 20 34 2 20 -11 -8 -46 -38
-77 -67 -49 -46 -78 -64 -78 -48 0 2 13 19 29 37 60 69 292 403 282 406 -5 2
-31 -6 -57 -17 -26 -12 -48 -21 -50 -21 -13 0 3 27 52 91 81 106 131 156 294
292 80 66 150 125 155 130 6 5 -8 1 -30 -8 -22 -9 -46 -19 -52 -22 -7 -3 -13
-1 -13 5 0 5 40 31 90 57 103 55 133 80 76 64 -42 -12 -63 -4 -45 17 6 8 8 25
5 40 -4 15 -2 32 5 40 9 11 8 22 -1 46 -19 48 -106 198 -134 233 l-25 30 -1
-26 c0 -15 6 -42 14 -60 11 -26 13 -64 9 -154 -3 -66 -6 -121 -8 -123 -2 -2
-46 19 -98 47 -96 51 -129 63 -109 39 11 -14 76 -188 86 -230 6 -28 -17 -63
-35 -52 -5 3 -32 35 -61 72 -55 73 -55 75 -17 -70 22 -86 22 -88 4 -109 -16
-17 -17 -22 -5 -29 17 -11 -27 -64 -183 -219 l-114 -113 -8 73 c-3 41 -13 88
-20 104 l-13 30 -1 -37 c-2 -72 -19 -38 -35 70 -17 116 -56 401 -56 417 0 5
21 -11 46 -35 26 -25 44 -37 41 -27 -34 95 -43 632 -14 817 33 213 105 461
156 541 60 96 96 109 172 61z m1782 -411 c71 -11 154 -27 185 -35 31 -8 70
-16 86 -18 l29 -3 -27 -32 c-34 -41 -63 -42 -196 -11 -89 22 -117 23 -455 23
-337 0 -366 -1 -459 -23 -55 -12 -115 -22 -133 -22 -40 0 -73 15 -73 34 0 27
170 76 345 101 148 21 530 13 698 -14z m1763 -944 c284 -296 511 -668 645
-1057 201 -579 240 -1202 110 -1736 -37 -148 -88 -311 -102 -319 -5 -4 -21 1
-34 9 -33 22 -32 55 5 186 40 136 76 331 95 514 78 746 -160 1565 -625 2145
-76 95 -149 176 -321 359 -49 51 -86 98 -84 105 3 7 9 25 15 40 l10 29 99 -91
c54 -50 139 -133 187 -184z m-3990 197 c-3 -12 -47 -66 -98 -121 -319 -342
-432 -495 -595 -808 -350 -676 -462 -1513 -288 -2149 34 -123 33 -167 -3 -208
l-29 -31 -21 69 c-69 229 -97 384 -113 627 -31 465 31 896 191 1332 196 532
453 917 854 1278 87 78 90 79 98 56 5 -13 7 -33 4 -45z m559 -463 c-3 -6 -14
-11 -23 -11 -15 1 -15 2 2 15 21 16 32 13 21 -4z m3178 -117 c20 -27 80 -112
132 -189 276 -412 433 -866 471 -1362 6 -81 4 -93 -9 -93 -14 0 -157 147 -193
199 -14 19 -13 21 4 21 11 0 39 -7 62 -15 75 -26 78 -17 13 40 -34 30 -91 90
-126 133 -95 114 -288 373 -285 383 2 4 22 0 45 -11 41 -18 167 -41 221 -39
l27 0 -25 11 c-110 45 -126 56 -197 133 -135 144 -165 189 -179 269 -7 39 -20
105 -30 146 -9 41 -17 125 -17 185 -2 115 19 248 37 242 6 -2 28 -26 49 -53z
m-3705 -147 c4 -129 2 -156 -23 -273 -33 -159 -46 -188 -130 -292 -80 -99
-166 -173 -229 -197 -44 -17 -61 -35 -32 -35 34 0 183 33 209 46 16 9 31 13
35 10 15 -15 -228 -332 -367 -479 -53 -55 -87 -97 -76 -93 42 17 109 36 127
36 14 0 -13 -35 -98 -125 -64 -69 -121 -125 -127 -125 -14 0 -2 137 23 276 26
148 92 407 141 557 74 228 279 603 422 772 109 129 118 124 125 -78z m-241
-1297 c-10 -50 -76 -220 -130 -333 -27 -59 -48 -109 -46 -112 3 -2 65 11 139
30 160 42 170 42 170 13 0 -18 -84 -462 -105 -555 -4 -16 -1 -23 10 -23 21 0
278 101 353 139 73 37 75 34 41 -74 -11 -36 -19 -80 -17 -97 3 -29 9 -34 73
-60 38 -16 86 -45 106 -64 22 -22 83 -120 150 -243 62 -113 174 -318 249 -456
76 -137 206 -376 290 -530 84 -154 207 -377 273 -495 67 -118 145 -258 174
-310 65 -116 66 -130 16 -130 -91 0 -410 72 -588 133 -384 131 -743 342 -955
563 -74 77 -91 101 -122 176 -73 173 -128 377 -128 473 0 55 -16 59 -27 8 -16
-81 0 -421 24 -508 12 -46 -28 14 -90 135 -132 254 -166 428 -168 834 l0 201
-54 -154 c-29 -84 -56 -155 -59 -158 -11 -11 -18 117 -12 211 9 127 27 222 61
320 15 43 25 80 22 83 -3 2 -30 -28 -59 -69 -90 -121 -126 -147 -305 -223 -53
-22 -57 -42 -7 -36 17 2 28 -16 63 -109 58 -148 207 -423 331 -609 48 -72 85
-150 95 -201 l7 -35 -43 49 c-226 254 -339 438 -474 765 l-54 133 55 62 c112
122 158 214 259 511 64 187 109 292 149 344 14 19 24 36 22 38 -2 2 -41 -10
-86 -27 -46 -17 -88 -29 -93 -27 -13 4 90 123 190 218 62 60 283 227 302 229
2 0 1 -13 -2 -30z m4123 4 c26 -27 191 -134 207 -134 13 0 144 -137 202 -209
23 -30 38 -58 33 -63 -4 -4 -41 3 -81 17 l-73 24 18 -27 c35 -52 53 -98 99
-242 26 -80 67 -208 91 -285 25 -77 66 -183 92 -235 26 -52 49 -98 50 -102 6
-13 -25 -9 -65 9 -84 38 -121 72 -192 178 -40 58 -73 105 -75 105 -2 0 7 -35
20 -78 36 -124 47 -230 42 -384 -3 -77 -10 -144 -15 -149 -6 -6 -16 20 -26 73
-9 46 -23 103 -31 128 -14 44 -14 42 -15 -87 -2 -204 -39 -449 -97 -643 -14
-47 -55 -141 -92 -210 -36 -69 -74 -141 -83 -160 -17 -32 -18 -33 -19 -10 0
14 12 72 26 130 21 83 28 137 32 263 3 98 1 157 -5 157 -6 0 -13 -28 -16 -63
-11 -113 -128 -439 -196 -543 -59 -91 -242 -235 -482 -378 -199 -120 -447
-229 -655 -290 -184 -54 -524 -114 -524 -92 0 16 284 531 675 1221 128 226
272 482 320 570 49 88 116 207 149 265 66 113 65 112 209 174 58 25 59 26 52
58 -3 18 -18 68 -32 111 -14 43 -23 80 -20 83 2 3 51 -16 108 -42 106 -48 288
-124 297 -124 12 0 -9 154 -48 362 -24 125 -40 231 -37 235 6 6 72 -11 300
-74 13 -4 8 10 -21 58 -41 67 -108 234 -142 354 -11 39 -20 71 -20 72 0 10 20
-1 40 -23z m155 -62 c-6 -7 -35 18 -35 31 0 5 9 2 20 -8 11 -10 18 -20 15 -23z
m-1013 -1244 c-56 -106 -141 -258 -382 -683 -226 -398 -619 -1100 -770 -1378
-36 -64 -69 -116 -75 -114 -5 2 -37 53 -71 113 -740 1336 -1131 2050 -1159
2119 -9 20 -14 39 -12 42 8 7 165 -61 310 -133 l132 -67 180 -181 180 -181
129 -270 c218 -458 307 -628 322 -613 19 20 206 379 338 648 l119 245 182 181
c181 180 183 182 296 237 120 59 318 147 332 147 5 0 -18 -51 -51 -112z
m-1218 3 c7 -11 -67 -21 -96 -13 -21 5 -21 6 -2 13 27 11 92 11 98 0z m2785
-25 c10 -11 3 -37 -33 -124 -118 -288 -275 -546 -433 -712 -48 -50 -62 -60
-63 -45 0 25 56 144 102 217 93 145 274 487 319 601 11 29 25 58 31 64 14 17
63 16 77 -1z m-2469 -453 c-1 -14 -104 -91 -160 -120 -49 -26 -64 -28 -160
-28 l-105 0 -73 45 c-41 25 -88 57 -105 72 l-32 27 31 1 c17 0 80 -9 140 -20
139 -25 186 -24 309 5 104 24 155 30 155 18z m-2236 -833 l6 -35 -15 30 c-16
33 -21 82 -6 55 5 -8 11 -31 15 -50z m3826 -17 c-11 -17 -11 -17 -6 0 3 10 6
24 7 30 0 9 2 9 5 0 3 -7 0 -20 -6 -30z"/>
<path fill="white" d="M2372 7150 c-24 -26 -76 -132 -115 -235 -30 -79 -31 -82 -35 -318 -3
-153 0 -243 6 -249 7 -7 11 75 14 248 4 237 7 264 27 321 41 113 80 150 129
124 25 -13 71 -109 171 -356 132 -324 261 -568 286 -543 4 3 -36 96 -88 205
-110 231 -156 337 -237 549 -78 205 -110 274 -126 274 -7 0 -22 -9 -32 -20z"/>
<path fill="white" d="M5485 6925 c26 -82 30 -139 29 -445 0 -179 3 -307 7 -285 15 81 31
373 25 460 -6 92 -38 244 -57 274 -9 14 -10 13 -4 -4z"/>
<path fill="white" d="M5497 6056 c-15 -53 -46 -240 -42 -245 17 -16 62 195 53 250 -3 23
-4 23 -11 -5z"/>
<path fill="white" d="M2250 6029 c1 -31 41 -204 50 -213 16 -16 12 11 -16 119 -25 98 -34
123 -34 94z"/>
<path fill="white" d="M3856 5937 c-9 -13 -38 -74 -65 -133 -26 -60 -144 -300 -261 -534
l-212 -424 47 -126 c108 -285 377 -780 478 -878 l34 -33 36 43 c116 142 408
703 481 925 l27 81 -214 429 c-118 235 -238 480 -267 543 -30 63 -57 119 -61
124 -4 4 -14 -3 -23 -17z m97 -407 c41 -118 107 -304 146 -412 39 -109 71
-207 71 -219 0 -12 -34 -103 -76 -202 -43 -100 -103 -251 -136 -336 -32 -85
-62 -160 -67 -168 -11 -21 -21 219 -23 602 l-2 330 -7 -360 c-3 -198 -7 -397
-8 -442 -2 -143 -12 -127 -177 288 -109 274 -116 296 -104 324 35 86 175 474
230 638 35 103 66 184 70 180 4 -4 41 -105 83 -223z"/>
<path fill="white" d="M2310 5758 c1 -22 42 -104 46 -92 3 6 -4 32 -15 57 -20 46 -31 59
-31 35z"/>
<path fill="white" d="M5421 5730 c-11 -25 -21 -51 -21 -59 0 -24 28 7 40 45 18 54 5 64
-19 14z"/>
<path fill="white" d="M4309 4372 c-68 -90 -81 -113 -120 -210 -44 -109 -56 -162 -42 -187
8 -13 11 -4 16 39 4 40 19 81 51 141 25 47 67 123 92 171 25 47 44 87 42 89
-2 3 -20 -17 -39 -43z"/>
<path fill="white" d="M3478 4237 c56 -108 83 -173 88 -208 4 -33 10 -47 17 -40 23 23 -42
210 -109 312 -80 121 -78 96 4 -64z"/>
<path fill="white" d="M2995 4295 c135 -148 385 -377 385 -352 0 3 -16 24 -35 47 -19 23
-52 74 -72 113 -56 106 -127 177 -226 225 -138 67 -141 65 -52 -33z"/>
<path fill="white" d="M4695 4321 c-128 -63 -172 -102 -251 -221 -35 -53 -82 -114 -106
-135 -61 -55 -26 -38 102 51 84 59 143 112 242 216 72 76 126 138 122 138 -5
0 -54 -22 -109 -49z"/>
<path fill="white" d="M2574 4157 c68 -43 145 -110 240 -206 91 -94 107 -116 103 -137 -4
-20 1 -27 27 -38 60 -26 118 -76 113 -97 -6 -22 -4 -22 43 -5 l35 13 -37 12
c-21 7 -49 27 -64 44 -41 48 -83 145 -90 210 l-7 57 34 0 c19 0 49 -9 66 -20
23 -14 42 -18 64 -13 l32 6 -7 -66 c-4 -37 -5 -71 -1 -76 10 -18 35 0 56 40
11 22 24 39 29 39 14 0 100 -112 100 -131 0 -8 -16 -30 -35 -49 -43 -41 -44
-50 -6 -50 47 0 78 -16 137 -72 30 -28 56 -49 58 -47 7 7 -42 146 -74 214 -16
34 -51 84 -79 113 -96 101 -153 124 -531 222 -201 51 -240 59 -206 37z"/>
<path fill="white" d="M4958 4120 c-210 -55 -378 -115 -449 -160 -96 -62 -156 -148 -198
-284 -29 -94 -28 -106 7 -74 47 43 87 67 136 80 25 7 46 15 46 18 0 4 -13 19
-30 35 -41 40 -40 74 6 125 43 48 58 50 79 10 20 -39 52 -40 61 -2 3 15 9 41
13 57 7 33 66 68 134 81 36 6 37 6 37 -25 0 -66 -41 -160 -97 -223 -30 -33
-52 -63 -49 -66 9 -8 113 66 139 99 12 15 35 46 51 68 32 44 215 226 281 278
22 18 36 32 30 32 -5 0 -94 -22 -197 -49z m-353 -170 c10 -16 -16 -43 -28 -31
-11 11 -2 41 12 41 5 0 13 -5 16 -10z"/>
<path fill="white" d="M3537 3903 c-4 -3 -7 -11 -7 -17 0 -6 5 -5 12 2 6 6 9 14 7 17 -3 3
-9 2 -12 -2z"/>
<path fill="white" d="M4230 3880 c-23 -14 19 -64 56 -67 28 -2 28 -2 4 5 -16 5 -29 19 -35
39 -8 24 -14 30 -25 23z"/>
<path fill="white" d="M4171 3552 c-1 -31 52 -239 57 -224 2 7 -1 41 -7 75 -13 76 -49 182
-50 149z"/>
<path fill="white" d="M3562 3503 c-28 -77 -42 -133 -41 -163 l0 -25 10 25 c15 37 60 213
55 217 -2 2 -13 -22 -24 -54z"/>
<path fill="white" d="M1921 2893 c-1 -51 48 -243 90 -355 65 -172 236 -423 404 -594 102
-105 116 -109 30 -9 -221 257 -408 601 -500 920 -22 75 -23 77 -24 38z"/>
<path fill="white" d="M5814 2864 c-108 -354 -310 -713 -528 -943 -45 -47 -88 -95 -96 -106
-24 -32 79 57 146 127 223 231 347 427 433 685 39 118 86 312 77 320 -3 3 -17
-35 -32 -83z"/>
</g>
</svg>
